#!OML:ASF E:\id_vita\Project 1\Capture day 1\Session 1\Male1.ASF
:FULLY-SPECIFIED
:DEGREES
318
root 32.8124 16.21 -0.457711 920.025 82.3306 919.361
lowerback -2.53185 -1.86233 -1.30306
upperback -0.245673 -2.46007 2.6556
thorax 1.33891 -1.23556 3.36767
lowerneck -12.1236 0.552649 3.49829
upperneck 7.80694 -0.024186 1.9901
head 4.31554 0.22711 0.0491254
rclavicle 3.12092e-014 -1.55052e-014
rhumerus -40.4867 -30.3197 -66.0487
rradius 16.8322
rwrist 17.442
rhand -21.4039 34.4192
rfingers 7.12502
rthumb 4.98434 4.49785
lclavicle 3.12092e-014 -1.55052e-014
lhumerus -19.2752 24.9217 86.8936
lradius 16.2305
lwrist -12.9163
lhand -10.0219 39.3164
lfingers 7.12502
lthumb 15.9625 68.6787
rfemur -12.0053 -4.1633 26.656
rtibia 28.365
rfoot -13.3317 -9.77286
rtoes -9.75402
lfemur -13.8488 2.34422 -15.3157
ltibia 64.3084
lfoot -11.4549 4.16855
ltoes 51.0502
319
root 32.9841 16.2087 -0.447427 920.782 82.5081 920.17
lowerback -2.44136 -1.6792 -1.26652
upperback -0.318906 -2.21507 2.58244
thorax 1.19174 -1.1103 3.28551
lowerneck -11.922 0.48097 3.62437
upperneck 7.91809 -0.106844 1.70717
head 4.31573 0.17338 -0.0647844
rclavicle 3.25199e-014 -2.0276e-014
rhumerus -38.6745 -27.7667 -68.9912
rradius 18.1995
rwrist 14.2926
rhand -21.7913 34.2089
rfingers 7.12502
rthumb 4.61031 4.27906
lclavicle 3.25199e-014 -2.0276e-014
lhumerus -20.7924 26.9797 85.2737
lradius 14.9857
lwrist -15.1499
lhand -9.5836 39.0719
lfingers 7.12502
lthumb 16.3846 68.3998
rfemur -11.2334 -3.67517 26.8243
rtibia 28.3522
rfoot -13.365 -10.3516
rtoes -10.4931
lfemur -15.4084 2.72107 -15.4096
ltibia 64.0475
lfoot -12.6732 3.65598
ltoes 51.0611
320
root 33.1489 16.2077 -0.459939 918.962 82.7102 918.274
lowerback -2.42835 -1.57094 -1.22022
upperback -0.442502 -2.06976 2.33887
thorax 1.03707 -1.03491 3.01597
lowerneck -11.3986 0.490062 3.47679
upperneck 7.34827 -0.0476752 1.81077
head 4.51304 0.192097 -0.0137041
rclavicle -2.4786e-015 9.93923e-015
rhumerus -37.0884 -25.0803 -71.6635
rradius 19.587
rwrist 11.202
rhand -22.2235 33.9952
rfingers 7.12502
rthumb 4.19296 4.05676
lclavicle -2.4786e-015 9.93923e-015
lhumerus -22.4819 29.571 83.218
lradius 13.6879
lwrist -17.7633
lhand -9.46075 38.5672
lfingers 7.12502
lthumb 16.5029 67.8853
rfemur -10.6797 -3.85734 26.4562
rtibia 28.5427
rfoot -14.3393 -10.3946
rtoes -10.2521
lfemur -17.0459 2.90893 -16.1254
ltibia 63.6225
lfoot -14.2411 3.38821
ltoes 49.7802
321
root 33.3235 16.1927 -0.447422 920.393 82.934 919.918
lowerback -2.25411 -1.40642 -1.15412
upperback -0.129957 -1.85816 2.28539
thorax 1.24302 -0.93493 2.93121
lowerneck -12.2677 0.528851 3.25358
upperneck 7.80543 -0.0238599 1.99474
head 4.33812 0.220188 0.0902371
rclavicle -1.53002e-014 -1.59028e-014
rhumerus -35.0011 -23.4899 -73.8355
rradius 20.5526
rwrist 9.15617
rhand -22.5679 35.4107
rfingers 7.12502
rthumb 3.8604 5.46589
lclavicle -1.53002e-014 -1.59028e-014
lhumerus -23.5584 32.9309 81.0486
lradius 12.2776
lwrist -21.1002
lhand -9.35118 38.212
lfingers 7.12502
lthumb 16.6084 67.5214
rfemur -9.7969 -3.06509 26.7366
rtibia 28.6659
rfoot -14.7782 -11.206
rtoes -9.65241
lfemur -18.3957 3.4869 -16.1712
ltibia 63.1918
lfoot -15.6982 2.73847
ltoes 48.619
322
root 33.4691 16.1756 -0.460013 916.179 83.211 915.39
lowerback -2.18038 -1.40362 -1.46839
upperback -0.266856 -1.84618 1.93889
thorax 1.05891 -0.928355 2.75517
lowerneck -12.3376 0.645083 3.42687
upperneck 7.86155 0.104988 1.93329
head 4.36787 0.286788 0.0531093
rclavicle 1.69961e-014 8.74653e-015
rhumerus -33.3556 -21.7924 -75.7451
rradius 21.4151
rwrist 7.36693
rhand -22.9012 36.9208
rfingers 7.12502
rthumb 3.53852 6.97047
lclavicle 1.69961e-014 8.74653e-015
lhumerus -25.7277 36.5073 77.8835
lradius 11.1873
lwrist -24.5475
lhand -8.25008 38.9561
lfingers 7.12502
lthumb 17.6682 68.1734
rfemur -9.57424 -3.41863 26.0349
rtibia 28.8725
rfoot -15.5321 -11.1367
rtoes -9.75183
lfemur -20.375 3.71315 -17.2947
ltibia 62.6408
lfoot -16.5467 2.43668
ltoes 48.3864
323
root 33.6279 16.1501 -0.449045 920.818 83.2825 920.204
lowerback -1.88216 -1.30004 -1.02473
upperback -0.162047 -1.71931 2.01389
thorax 0.980943 -0.862747 2.59275
lowerneck -12.4358 0.741519 3.46354
upperneck 7.78033 0.231432 1.87429
head 4.35963 0.345303 0.0384006
rclavicle 1.03772e-014 -9.93923e-015
rhumerus -31.6457 -19.4726 -77.7071
rradius 22.5418
rwrist 4.69837
rhand -23.4361 37.9098
rfingers 7.12502
rthumb 3.02197 7.95151
lclavicle 1.03772e-014 -9.93923e-015
lhumerus -28.3887 41.0509 73.9263
lradius 10.1525
lwrist -29.2208
lhand -6.79479 39.7284
lfingers 7.12502
lthumb 19.0682 68.8137
rfemur -8.7872 -2.77818 26.7786
rtibia 28.9904
rfoot -15.7626 -11.8347
rtoes -9.34849
lfemur -21.9469 4.28318 -16.8777
ltibia 62.0433
lfoot -17.02 1.59049
ltoes 48.5186
324
root 33.7915 16.1301 -0.445696 922.457 83.4767 921.924
lowerback -1.66078 -1.23416 -0.894848
upperback -0.134467 -1.6344 1.93487
thorax 0.874634 -0.819249 2.44556
lowerneck -12.1685 0.896281 3.66586
upperneck 7.4601 0.444418 1.68962
head 4.21955 0.437334 -0.0375172
rclavicle -1.12422e-014 3.18055e-015
rhumerus -30.3599 -16.8094 -79.5572
rradius 23.9587
rwrist 1.84449
rhand -23.9481 38.7164
rfingers 7.12502
rthumb 2.52751 8.75164
lclavicle -1.12422e-014 3.18055e-015
lhumerus -29.4077 40.9622 72.7109
lradius 9.20543
lwrist -28.9519
lhand -7.32447 39.9413
lfingers 7.12502
lthumb 18.5587 69.076
rfemur -8.03347 -2.43654 26.9965
rtibia 29.0835
rfoot -16.3323 -12.2238
rtoes -8.42326
lfemur -23.4092 4.65393 -17.0079
ltibia 61.1502
lfoot -17.4504 1.06529
ltoes 48.3489
325
root 33.9571 16.1192 -0.45065 921.69 83.7351 921.172
lowerback -1.50138 -1.01671 -0.813598
upperback -0.106436 -1.34649 1.73015
thorax 0.792863 -0.675045 2.19957
lowerneck -12.252 0.792853 3.5911
upperneck 7.34937 0.329046 1.55543
head 4.19757 0.368147 -0.07505
rclavicle 7.90868e-015 -8.34896e-015
rhumerus -29.3089 -15.1682 -80.7158
rradius 25.3993
rwrist -0.178894
rhand -24.2799 39.3597
rfingers 7.12502
rthumb 2.20705 9.39139
lclavicle 7.90868e-015 -8.34896e-015
lhumerus -30.2426 40.4618 71.8682
lradius 8.26059
lwrist -28.7157
lhand -8.21773 40.1189
lfingers 7.12502
lthumb 17.6993 69.3333
rfemur -7.19069 -2.3528 26.8242
rtibia 28.8831
rfoot -16.9069 -12.375
rtoes -7.76844
lfemur -24.7958 4.8372 -17.5185
ltibia 60.0057
lfoot -18.0394 0.289232
ltoes 48.2426
326
root 34.1223 16.1144 -0.463646 919.381 84.1336 918.682
lowerback -1.54177 -0.932536 -0.936762
upperback -0.0763396 -1.23314 1.44408
thorax 0.837496 -0.620163 1.97663
lowerneck -12.7264 0.846977 3.9226
upperneck 7.50975 0.350781 1.23165
head 4.32531 0.373752 -0.22455
rclavicle 7.7559e-015 -1.36167e-014
rhumerus -28.0264 -13.6263 -81.9367
rradius 26.6702
rwrist -1.70075
rhand -24.575 39.818
rfingers 7.12502
rthumb 1.92199 9.84694
lclavicle 7.7559e-015 -1.36167e-014
lhumerus -31.2043 40.2868 70.6676
lradius 7.44896
lwrist -28.4812
lhand -7.9381 41.4484
lfingers 7.12502
lthumb 17.9684 70.6383
rfemur -6.47475 -2.41156 26.3664
rtibia 28.4452
rfoot -17.371 -12.2048
rtoes -7.32566
lfemur -26.2538 4.99437 -18.3079
ltibia 58.6129
lfoot -18.4688 -1.00798
ltoes 48.85
327
root 34.3004 16.1106 -0.457444 920.912 84.4812 920.176
lowerback -1.5924 -0.744883 -0.925078
upperback 0.021507 -0.98373 1.35514
thorax 0.953929 -0.49712 1.88326
lowerneck -13.0672 0.804953 3.72027
upperneck 7.48449 0.29838 1.38576
head 4.37154 0.352802 -0.147115
rclavicle -4.01976e-015 -1.3418e-015
rhumerus -26.7336 -12.0929 -82.8831
rradius 27.7798
rwrist -3.38086
rhand -24.8346 40.2752
rfingers 7.12502
rthumb 1.67135 10.302
lclavicle -4.01976e-015 -1.3418e-015
lhumerus -31.8319 40.0208 69.8018
lradius 6.29689
lwrist -28.3976
lhand -7.58993 42.9232
lfingers 7.12502
lthumb 18.3034 72.0821
rfemur -5.54118 -1.74363 26.546
rtibia 27.8928
rfoot -17.6515 -12.7157
rtoes -7.56977
lfemur -27.4767 5.34233 -18.4929
ltibia 56.9834
lfoot -18.3031 -2.17762
ltoes 49.36
328
root 34.464 16.1089 -0.471602 927.674 84.3913 927.076
lowerback -1.26054 -0.580832 0.0501506
upperback 0.10972 -0.779499 1.40285
thorax 0.837617 -0.389411 1.39284
lowerneck -13.1908 0.770324 3.27427
upperneck 7.25425 0.299057 1.70226
head 4.3191 0.356611 0.0223955
rclavicle 2.92936e-015 7.7526e-015
rhumerus -25.4338 -10.4294 -83.6108
rradius 28.8157
rwrist -5.11577
rhand -24.9412 40.9614
rfingers 7.12502
rthumb 1.56838 10.9874
lclavicle 2.92936e-015 7.7526e-015
lhumerus -32.2388 39.7596 69.1255
lradius 4.85879
lwrist -28.3809
lhand -9.71196 42.645
lfingers 7.12502
lthumb 16.261 71.9831
rfemur -4.30805 -1.75393 27.2291
rtibia 26.9801
rfoot -17.8184 -12.6979
rtoes -7.75191
lfemur -28.5635 5.47732 -18.0681
ltibia 55.2967
lfoot -18.2734 -3.2358
ltoes 48.8419
329
root 34.6323 16.1189 -0.482817 922.053 85.0058 921.035
lowerback -1.46023 -0.439781 -0.535811
upperback -0.199516 -0.580793 1.08224
thorax 0.630682 -0.290832 1.39674
lowerneck -12.323 0.790037 3.21668
upperneck 6.50088 0.388 1.66774
head 4.39583 0.380191 0.0165627
rclavicle 7.78588e-015 -1.25483e-014
rhumerus -24.9428 -8.72219 -84.205
rradius 30.2462
rwrist -6.54418
rhand -25.1164 41.331
rfingers 7.12502
rthumb 1.39911 11.3559
lclavicle 7.78588e-015 -1.25483e-014
lhumerus -33.5883 39.2976 67.7075
lradius 3.64157
lwrist -28.3386
lhand -10.0776 43.344
lfingers 7.12502
lthumb 15.9089 72.7106
rfemur -3.59088 -1.54822 26.3877
rtibia 26.0284
rfoot -17.7799 -12.7089
rtoes -8.63322
lfemur -29.9456 5.46899 -19.2346
ltibia 53.2483
lfoot -18.4332 -4.1109
ltoes 47.8568
330
root 34.8111 16.1134 -0.490024 933.521 84.8943 932.892
lowerback -1.10743 -0.302743 0.570571
upperback 0.146626 -0.414106 1.25786
thorax 0.775933 -0.204206 0.960389
lowerneck -13.1465 0.85464 3.13197
upperneck 6.89255 0.446702 1.71684
head 4.20058 0.419922 0.0596434
rclavicle -1.53321e-014 8.09737e-015
rhumerus -23.6344 -7.26488 -84.8153
rradius 31.6818
rwrist -7.53925
rhand -25.379 41.2151
rfingers 7.12502
rthumb 1.14553 11.2385
lclavicle -1.53321e-014 8.09737e-015
lhumerus -33.4862 39.3419 67.0068
lradius 1.76972
lwrist -28.4389
lhand -11.199 43.5101
lfingers 7.12502
lthumb 14.8288 72.9595
rfemur -1.91679 -1.20124 27.5026
rtibia 24.8449
rfoot -17.6047 -12.9159
rtoes -10.0254
lfemur -30.5533 5.68737 -18.3183
ltibia 51.1958
lfoot -18.3564 -4.92864
ltoes 47.0304
331
root 34.9842 16.1247 -0.51215 928.161 85.577 927.154
lowerback -1.43068 -0.228683 0.113104
upperback 0.0435818 -0.311162 0.882812
thorax 0.850657 -0.155463 0.833494
lowerneck -12.9986 0.960192 3.26202
upperneck 6.73378 0.5774 1.70789
head 4.12908 0.48431 0.0445051
rclavicle -3.50513e-015 -5.86415e-015
rhumerus -22.8849 -5.56947 -85.4042
rradius 33.0479
rwrist -8.92085
rhand -25.5228 41.41
rfingers 7.12502
rthumb 1.00665 11.4326
lclavicle -3.50513e-015 -5.86415e-015
lhumerus -34.2747 39.2011 65.7153
lradius 0.396299
lwrist -28.5491
lhand -11.7521 44.2467
lfingers 7.12502
lthumb 14.2959 73.7345
rfemur -1.02779 -1.48909 26.5058
rtibia 23.6999
rfoot -17.9357 -12.2282
rtoes -9.4382
lfemur -31.6457 5.5341 -19.4483
ltibia 48.8003
lfoot -18.1153 -5.28969
ltoes 46.9776
